<svg width="50" height="51" viewBox="0 0 50 51" fill="none" xmlns="http://www.w3.org/2000/svg">
    <g clip-path="url(#clip0_4_1522)">
        <path
            d="M25 14.3852C28.2044 14.3852 28.5835 14.3976 29.8492 14.4553C31.0191 14.5086 31.6545 14.7039 32.0775 14.8683C32.6377 15.0859 33.0373 15.346 33.4574 15.7657C33.8776 16.1858 34.1377 16.5855 34.3549 17.1456C34.5192 17.5686 34.7145 18.2041 34.7679 19.374C34.8255 20.6391 34.8379 21.0188 34.8379 24.2231C34.8379 27.4275 34.8255 27.8067 34.7679 29.0723C34.7145 30.2422 34.5192 30.8776 34.3549 31.3006C34.1372 31.8608 33.8771 32.2605 33.4574 32.6806C33.0373 33.1007 32.6377 33.3608 32.0775 33.578C31.6545 33.7423 31.0191 33.9376 29.8492 33.991C28.584 34.0486 28.2044 34.061 25 34.061C21.7957 34.061 21.416 34.0486 20.1508 33.991C18.9809 33.9376 18.3455 33.7423 17.9225 33.578C17.3623 33.3603 16.9627 33.1002 16.5426 32.6806C16.1224 32.2605 15.8623 31.8608 15.6451 31.3006C15.4808 30.8776 15.2855 30.2422 15.2321 29.0723C15.1745 27.8071 15.1621 27.4275 15.1621 24.2231C15.1621 21.0188 15.1745 20.6396 15.2321 19.374C15.2855 18.2041 15.4808 17.5686 15.6451 17.1456C15.8628 16.5855 16.1229 16.1858 16.5426 15.7657C16.9622 15.3456 17.3623 15.0855 17.9225 14.8683C18.3455 14.7039 18.9809 14.5086 20.1508 14.4553C21.416 14.3976 21.7957 14.3852 25 14.3852ZM25 12.2231C21.7409 12.2231 21.3322 12.2369 20.0522 12.2955C18.7752 12.3537 17.9025 12.5566 17.1394 12.8533C16.3501 13.1601 15.6809 13.5702 15.014 14.2376C14.3466 14.9049 13.9365 15.5737 13.6297 16.363C13.3334 17.1261 13.1305 17.9983 13.0724 19.2754C13.0138 20.5553 13 20.964 13 24.2231C13 27.4823 13.0138 27.891 13.0724 29.1709C13.1305 30.448 13.3334 31.3206 13.6302 32.0837C13.937 32.873 14.3471 33.5423 15.0144 34.2092C15.6818 34.8765 16.3506 35.2866 17.1399 35.5934C17.903 35.8902 18.7756 36.0931 20.0527 36.1512C21.3326 36.2098 21.7413 36.2236 25.0005 36.2236C28.2596 36.2236 28.6683 36.2098 29.9482 36.1512C31.2253 36.0931 32.098 35.8902 32.8611 35.5934C33.6504 35.2866 34.3196 34.8765 34.9865 34.2092C35.6539 33.5418 36.064 32.873 36.3708 32.0837C36.6675 31.3206 36.8704 30.448 36.9286 29.1709C36.9871 27.891 37.001 27.4823 37.001 24.2231C37.001 20.964 36.9871 20.5553 36.9286 19.2754C36.8704 17.9983 36.6675 17.1256 36.3708 16.3625C36.064 15.5732 35.6539 14.904 34.9865 14.2371C34.3192 13.5698 33.6504 13.1596 32.8611 12.8529C32.098 12.5561 31.2253 12.3532 29.9482 12.2951C28.6683 12.2365 28.2596 12.2227 25.0005 12.2227L25 12.2231Z"
            fill="#ADADAD" />
        <path
            d="M25.0001 18.0613C21.5966 18.0613 18.8381 20.8202 18.8381 24.2232C18.8381 27.6262 21.5971 30.3852 25.0001 30.3852C28.4031 30.3852 31.162 27.6262 31.162 24.2232C31.162 20.8202 28.4031 18.0613 25.0001 18.0613ZM25.0001 28.2235C22.7908 28.2235 21.0002 26.4325 21.0002 24.2237C21.0002 22.0149 22.7913 20.2239 25.0001 20.2239C27.2089 20.2239 28.9999 22.0149 28.9999 24.2237C28.9999 26.4325 27.2089 28.2235 25.0001 28.2235Z"
            fill="#ADADAD" />
        <path
            d="M31.4058 19.2574C32.2011 19.2574 32.8458 18.6127 32.8458 17.8174C32.8458 17.0221 32.2011 16.3774 31.4058 16.3774C30.6105 16.3774 29.9658 17.0221 29.9658 17.8174C29.9658 18.6127 30.6105 19.2574 31.4058 19.2574Z"
            fill="#ADADAD" />
    </g>
    <circle cx="25" cy="25.2231" r="24.5" stroke="#EEEEEE" />
    <defs>
        <clipPath id="clip0_4_1522">
            <rect width="24" height="24" fill="white" transform="translate(13 12.2231)" />
        </clipPath>
    </defs>
</svg>
