<svg width="50" height="51" viewBox="0 0 50 51" fill="none" xmlns="http://www.w3.org/2000/svg">
    <circle cx="25" cy="25.2231" r="24.5" stroke="#EEEEEE" />
    <g clip-path="url(#clip0_4_1529)">
        <path
            d="M20.862 36.2231C30.296 36.2231 35.456 28.5295 35.456 21.8576C35.456 21.639 35.451 21.4215 35.441 21.2049C36.442 20.4923 37.313 19.6034 38 18.5905C37.081 18.9921 36.092 19.2628 35.054 19.3849C36.113 18.7598 36.926 17.7705 37.309 16.5923C36.318 17.1711 35.22 17.5914 34.052 17.8178C33.117 16.8374 31.784 16.2231 30.309 16.2231C27.476 16.2231 25.179 18.4842 25.179 21.2719C25.179 21.6686 25.224 22.0534 25.312 22.4226C21.049 22.2119 17.269 20.2029 14.74 17.1474C14.299 17.8936 14.045 18.7608 14.045 19.6851C14.045 21.4372 14.951 22.9827 16.327 23.8873C15.486 23.8617 14.695 23.6343 14.004 23.2553C14.003 23.276 14.003 23.2977 14.003 23.3193C14.003 25.7644 15.771 27.806 18.118 28.2686C17.687 28.3838 17.234 28.4458 16.766 28.4458C16.436 28.4458 16.114 28.4133 15.802 28.3543C16.455 30.3604 18.348 31.8202 20.594 31.8605C18.838 33.215 16.627 34.0221 14.224 34.0221C13.81 34.0221 13.402 33.9985 13 33.9523C15.27 35.3845 17.965 36.2202 20.862 36.2202"
            fill="#ADADAD" />
    </g>
    <defs>
        <clipPath id="clip0_4_1529">
            <rect width="25" height="20" fill="white" transform="translate(13 16.2231)" />
        </clipPath>
    </defs>
</svg>
