<svg xmlns="http://www.w3.org/2000/svg" xmlns:xlink="http://www.w3.org/1999/xlink" viewBox="0 0 1060.91 206"><defs><style>.cls-1{fill:none;}.cls-2{fill:#333;}.cls-3{fill:#0071bc;}.cls-4{isolation:isolate;}.cls-5{clip-path:url(#clip-path);}.cls-6{clip-path:url(#clip-path-2);}.cls-7{clip-path:url(#clip-path-5);}.cls-8{clip-path:url(#clip-path-6);}.cls-9{clip-path:url(#clip-path-7);}.cls-10{clip-path:url(#clip-path-8);}.cls-11{clip-path:url(#clip-path-9);}.cls-12{clip-path:url(#clip-path-10);}.cls-13{clip-path:url(#clip-path-11);}.cls-14{clip-path:url(#clip-path-12);}</style><clipPath id="clip-path" transform="translate(0 -24.35)"><rect class="cls-1" x="236.49" y="15.54" width="183.32" height="223.18"/></clipPath><clipPath id="clip-path-2" transform="translate(0 -24.35)"><polygon class="cls-1" points="236.49 238.72 236.86 41.25 419.81 15.54 419.44 213.01 236.49 238.72"/></clipPath><clipPath id="clip-path-5" transform="translate(0 -24.35)"><rect class="cls-1" x="247.85" y="8.67" width="160.6" height="236.92"/></clipPath><clipPath id="clip-path-6" transform="translate(0 -24.35)"><polygon class="cls-1" points="408.45 8.67 254.04 55.07 247.85 245.59 402.26 199.19 408.45 8.67"/></clipPath><clipPath id="clip-path-7" transform="translate(0 -24.35)"><rect class="cls-1" x="258.34" y="3.94" width="140.51" height="247.27"/></clipPath><clipPath id="clip-path-8" transform="translate(0 -24.35)"><polygon class="cls-1" points="398.84 3.94 271.58 66.38 258.34 251.21 385.6 188.77 398.84 3.94"/></clipPath><clipPath id="clip-path-9" transform="translate(0 -24.35)"><rect class="cls-1" x="267.79" y="0.22" width="122.5" height="254.7"/></clipPath><clipPath id="clip-path-10" transform="translate(0 -24.35)"><polygon class="cls-1" points="390.29 0.22 289.72 74.33 267.79 254.92 368.34 180.82 390.29 0.22"/></clipPath><clipPath id="clip-path-11" transform="translate(0 -24.35)"><rect class="cls-1" x="267.57" width="122.49" height="254.7"/></clipPath><clipPath id="clip-path-12" transform="translate(0 -24.35)"><polygon class="cls-1" points="390.06 0 289.51 74.1 267.57 254.7 368.13 180.6 390.06 0"/></clipPath></defs><title>posse</title><g id="レイヤー_2" data-name="レイヤー 2"><g id="レイヤー_1-2" data-name="レイヤー 1"><path class="cls-2" d="M208.91,89.63c0,36-33.11,64.46-69.74,64.46H68.56v75.6H0V24.59H142.1c41.61,0,66.81,24,66.81,65m-68.56-.58c0-7-4.69-10.26-11.14-10.26H68.56v21.1h60.65c6.45,0,11.14-4.4,11.14-10.84" transform="translate(0 -24.35)"/><path class="cls-3" d="M327.87,39.35a88,88,0,1,1-88,88,88.1,88.1,0,0,1,88-88m0-15a103,103,0,1,0,103,103,103,103,0,0,0-103-103" transform="translate(0 -24.35)"/><g class="cls-4"><g class="cls-5"><g class="cls-6"><path class="cls-3" d="M328,211.45c-43.08,6.06-78.06-26.84-78-73.34s35.2-89.25,78.28-95.3,78.06,26.84,78,73.34-35.2,89.25-78.28,95.3m.34-183.06c-50.52,7.1-91.55,57.07-91.65,111.59s40.76,93,91.28,85.89,91.56-57.07,91.67-111.6-40.78-93-91.3-85.88" transform="translate(0 -24.35)"/></g></g></g><g class="cls-4"><g class="cls-5"><g class="cls-6"><path class="cls-3" d="M328,211.45c-43.08,6.06-78.06-26.84-78-73.34s35.2-89.25,78.28-95.3,78.06,26.84,78,73.34-35.2,89.25-78.28,95.3m.34-183.06c-50.52,7.1-91.55,57.07-91.65,111.59s40.76,93,91.28,85.89,91.56-57.07,91.67-111.6-40.78-93-91.3-85.88" transform="translate(0 -24.35)"/></g></g></g><g class="cls-4"><g class="cls-7"><g class="cls-8"><path class="cls-3" d="M317,210.37c-32.16,4.52-56.09-22.15-54.75-63.43,1.46-44.86,32.22-90.24,68.58-101.16a56.16,56.16,0,0,1,8.54-1.89c32.16-4.53,56.09,22.15,54.76,63.43-1.46,44.86-32.23,90.24-68.58,101.16a57.51,57.51,0,0,1-8.55,1.89M341.28,29.64a68.65,68.65,0,0,0-9.24,2l-1.61.48C288.15,45.35,252.65,98.05,251,150.32c-1.58,48.41,26.38,79.59,64.06,74.3a67,67,0,0,0,9.33-2l1.41-.42c42.33-13.18,77.9-65.93,79.6-118.24,1.58-48.41-26.38-79.59-64.07-74.3" transform="translate(0 -24.35)"/></g></g></g><g class="cls-4"><g class="cls-9"><g class="cls-10"><path class="cls-3" d="M310.24,210.57c-23.18,3.26-38.64-19.25-36-56.34,3.12-43.51,30-90.89,60-105.58a45.89,45.89,0,0,1,7-2.8A36.39,36.39,0,0,1,347,44.57c23.17-3.26,38.64,19.26,36,56.34-3.12,43.52-30,90.89-60,105.58a45.89,45.89,0,0,1-7,2.8,36.39,36.39,0,0,1-5.69,1.28M350.13,30.36a45.11,45.11,0,0,0-6.68,1.5,57.3,57.3,0,0,0-7.65,3l-.95.47-.26.13c-34.89,17.58-66,72.58-69.62,123.32-3.12,43.48,14.94,69.81,42.09,66a43.82,43.82,0,0,0,6.68-1.49,56.18,56.18,0,0,0,7.49-2.94l.43-.21,1-.48c34.87-17.61,66-72.59,69.58-123.31,3.13-43.48-14.94-69.8-42.08-66" transform="translate(0 -24.35)"/></g></g></g><g class="cls-4"><g class="cls-11"><g class="cls-12"><path class="cls-3" d="M306.45,210.76C290.72,213,282,193.13,286.1,159.22c5.17-42.52,28.63-91.33,52.3-108.76A39.16,39.16,0,0,1,343.9,47a27.08,27.08,0,0,1,4.41-1.86,20,20,0,0,1,3.32-.76C367.35,42.16,376.09,62,372,95.93c-5.17,42.52-28.63,91.32-52.31,108.76a39.16,39.16,0,0,1-5.5,3.46,27.73,27.73,0,0,1-4.39,1.85,20.58,20.58,0,0,1-3.33.76M355.53,30.14a22.72,22.72,0,0,0-3.9.9,31.6,31.6,0,0,0-5.16,2.16,48.74,48.74,0,0,0-5.88,3.65l-.58.43-.49.36c-27.6,20.77-54.74,77.42-60.75,127-4.84,39.76,5.37,63,23.77,60.39a22.61,22.61,0,0,0,3.91-.9,32,32,0,0,0,5.16-2.16,48.7,48.7,0,0,0,6-3.72l1-.72c27.59-20.77,54.73-77.42,60.76-127,4.83-39.75-5.38-63-23.79-60.38" transform="translate(0 -24.35)"/></g></g></g><g class="cls-4"><g class="cls-13"><g class="cls-14"><path class="cls-3" d="M306.22,210.55c-15.72,2.21-24.46-17.64-20.35-51.55,5.17-42.53,28.64-91.32,52.31-108.76a41.22,41.22,0,0,1,5.5-3.47,28.22,28.22,0,0,1,4.41-1.84,19.53,19.53,0,0,1,3.32-.77C367.13,42,375.87,61.8,371.76,95.72c-5.18,42.53-28.64,91.31-52.31,108.75a41.22,41.22,0,0,1-5.5,3.47,27.83,27.83,0,0,1-4.41,1.84,20.29,20.29,0,0,1-3.32.77M355.3,29.91a24.4,24.4,0,0,0-3.89.9A33.08,33.08,0,0,0,346.24,33a48.74,48.74,0,0,0-5.88,3.65l-.27.2-.83.62c-27.59,20.78-54.7,77.4-60.72,127-4.83,39.76,5.38,63,23.79,60.39a24.4,24.4,0,0,0,3.89-.9,32.59,32.59,0,0,0,5.16-2.17,49.54,49.54,0,0,0,6-3.73l.92-.68c27.61-20.75,54.77-77.41,60.79-127,4.84-39.77-5.38-63-23.79-60.4" transform="translate(0 -24.35)"/></g></g></g><path class="cls-2" d="M458.5,175.86h107c9.08,0,13.48-4.1,13.48-10.84,0-6.45-4.4-10.55-13.78-10.55H516.52c-34.28,0-62.12-23.44-62.12-64.75C454.4,42.25,486.92,25,519.74,25H641V79.17H536.44c-7.91,0-13.48,2.93-13.48,10.25,0,7.62,5.57,10.84,13.48,10.84h45.71c39.26,0,65.34,23.15,65.34,64.46,0,39-29.3,65.34-67.39,65.34H457.62Z" transform="translate(0 -24.35)"/><path class="cls-2" d="M666,175.86H772.89c9.08,0,13.48-4.1,13.48-10.84,0-6.45-4.4-10.55-13.77-10.55H724c-34.28,0-62.12-23.44-62.12-64.75,0-47.47,32.53-64.76,65.34-64.76h121.3V79.17H743.88c-7.91,0-13.47,2.93-13.47,10.25,0,7.62,5.56,10.84,13.47,10.84h45.71c39.26,0,65.34,23.15,65.34,64.46,0,39-29.3,65.34-67.39,65.34H665.07Z" transform="translate(0 -24.35)"/><polygon class="cls-2" points="948.39 54.52 948.39 75.91 1060.91 75.91 1060.91 130.12 948.39 130.12 948.39 151.8 1060.91 151.8 1060.91 205.71 879.83 205.71 879.83 0.61 1060.91 0.61 1060.91 54.52 948.39 54.52"/></g></g></svg>